<svg id="Layer_1" data-name="Layer 1" xmlns="http://www.w3.org/2000/svg" xmlns:xlink="http://www.w3.org/1999/xlink" viewBox="0 0 74.02 21.02"><defs><style>.cls-1{fill:url(#linear-gradient);}.cls-2{fill:url(#linear-gradient-2);}.cls-3{fill:url(#linear-gradient-3);}</style><linearGradient id="linear-gradient" x1="21.2" y1="14.93" x2="39.62" y2="23.73" gradientUnits="userSpaceOnUse"><stop offset="0" stop-color="#231f20"/><stop offset="0.14" stop-color="#272324"/><stop offset="0.27" stop-color="#322e2f"/><stop offset="0.4" stop-color="#454142"/><stop offset="0.53" stop-color="#5f5c5d"/><stop offset="0.66" stop-color="#817f7f"/><stop offset="0.79" stop-color="#aaa9a9"/><stop offset="0.91" stop-color="#dbdada"/><stop offset="0.99" stop-color="#fff"/></linearGradient><linearGradient id="linear-gradient-2" x1="21.2" y1="16.15" x2="37.93" y2="1.33" gradientUnits="userSpaceOnUse"><stop offset="0.05" stop-color="#ee485f"/><stop offset="1" stop-color="#0063a9"/></linearGradient><linearGradient id="linear-gradient-3" x1="77.34" y1="29.9" x2="67.01" y2="6.7" gradientUnits="userSpaceOnUse"><stop offset="0" stop-color="#231f20"/><stop offset="0.12" stop-color="#282425"/><stop offset="0.25" stop-color="#353232"/><stop offset="0.39" stop-color="#4c4849"/><stop offset="0.53" stop-color="#6b6969"/><stop offset="0.68" stop-color="#949292"/><stop offset="0.83" stop-color="#c5c4c4"/><stop offset="0.99" stop-color="#fff"/></linearGradient></defs><path class="cls-1" d="M25.56,23.33a4.5,4.5,0,0,1-2.38.59,3.94,3.94,0,0,1-3-1.19,4.31,4.31,0,0,1-1.14-3.1,4.75,4.75,0,0,1,1.22-3.4,4.29,4.29,0,0,1,3.28-1.3,4.49,4.49,0,0,1,2,.42v1.51a3.31,3.31,0,0,0-2-.67,2.73,2.73,0,0,0-2.13.91,3.47,3.47,0,0,0-.82,2.41,3.29,3.29,0,0,0,.78,2.32,2.68,2.68,0,0,0,2.08.84,3.52,3.52,0,0,0,2.1-.73ZM27,15.73a5.49,5.49,0,0,1,3-.8q3.11,0,3.1,3.26v5.53H31.6V22.39h0a2.89,2.89,0,0,1-2.64,1.53,2.81,2.81,0,0,1-2-.67,2.37,2.37,0,0,1-.74-1.83c0-1.6.95-2.54,2.85-2.8l2.55-.36q0-2.1-1.74-2.1a4.38,4.38,0,0,0-2.82,1Zm2.54,3.95a2.65,2.65,0,0,0-1.45.53,1.43,1.43,0,0,0-.4,1.09,1.27,1.27,0,0,0,.43,1,1.67,1.67,0,0,0,1.15.39A2.11,2.11,0,0,0,31,22a2.49,2.49,0,0,0,.65-1.75v-.83Zm9.88-3a1.76,1.76,0,0,0-1-.27A1.72,1.72,0,0,0,37,17.2a3.67,3.67,0,0,0-.58,2.17v4.35H34.86V15.13h1.52v1.75h0A2.36,2.36,0,0,1,38.67,15a2.29,2.29,0,0,1,.79.11Z" transform="translate(-19.05 -3.08)"/><polygon class="cls-2" points="16.62 0 23.73 0 27.78 7.98 31.87 0 38.56 0 31.6 10.24 38.5 21.02 31.41 21.02 27.59 13.54 23.26 21.02 16.21 21.02 23.03 10.51 16.62 0"/><path class="cls-3" d="M56.42,23.61a2.84,2.84,0,0,1-1.35.27c-1.53,0-2.3-.85-2.3-2.56v-5H51.29V15.1h1.48V13l1.51-.48V15.1h2.14v1.26H54.28v4.69a2,2,0,0,0,.29,1.21,1.12,1.12,0,0,0,1,.37,1.47,1.47,0,0,0,.9-.29Zm8.17-3.82h-6a3.09,3.09,0,0,0,.75,2.12,2.63,2.63,0,0,0,2,.75A4.21,4.21,0,0,0,64,21.73v1.36a5,5,0,0,1-3,.8,3.68,3.68,0,0,1-2.91-1.18,4.79,4.79,0,0,1-1-3.27,4.73,4.73,0,0,1,1.14-3.26A3.7,3.7,0,0,1,61,14.9,3.29,3.29,0,0,1,63.64,16a4.45,4.45,0,0,1,1,3Zm-1.52-1.22a2.69,2.69,0,0,0-.56-1.8A1.87,1.87,0,0,0,61,16.13a2.12,2.12,0,0,0-1.58.68,3.09,3.09,0,0,0-.83,1.76Zm7.65-2a1.76,1.76,0,0,0-1-.27,1.7,1.7,0,0,0-1.46.83,3.67,3.67,0,0,0-.58,2.17v4.35H66.12V15.1h1.52v1.75h0A2.36,2.36,0,0,1,69.93,15a2.29,2.29,0,0,1,.79.11ZM84,23.69H82.51V18.76a3.5,3.5,0,0,0-.44-2,1.65,1.65,0,0,0-1.43-.6,1.74,1.74,0,0,0-1.43.78,3,3,0,0,0-.6,1.86v4.89H77.09V18.61c0-1.63-.63-2.45-1.89-2.45a1.74,1.74,0,0,0-1.44.75,3,3,0,0,0-.57,1.9v4.88H71.67V15.1h1.52v1.36h0A2.93,2.93,0,0,1,75.9,14.9a2.52,2.52,0,0,1,1.52.48,2.41,2.41,0,0,1,.92,1.28,3.07,3.07,0,0,1,2.85-1.76Q84,14.9,84,18.4Zm9-3.9h-6a3.09,3.09,0,0,0,.75,2.12,2.63,2.63,0,0,0,2,.75,4.21,4.21,0,0,0,2.64-.93v1.36a5,5,0,0,1-3,.8,3.68,3.68,0,0,1-2.91-1.18,4.79,4.79,0,0,1-1-3.27,4.73,4.73,0,0,1,1.14-3.26,3.7,3.7,0,0,1,2.85-1.28A3.29,3.29,0,0,1,92.12,16a4.45,4.45,0,0,1,.95,3Zm-1.52-1.22a2.69,2.69,0,0,0-.56-1.8,1.87,1.87,0,0,0-1.52-.64,2.12,2.12,0,0,0-1.58.68,3.09,3.09,0,0,0-.83,1.76Z" transform="translate(-19.05 -3.08)"/></svg>