<svg xmlns="http://www.w3.org/2000/svg" xmlns:xlink="http://www.w3.org/1999/xlink" viewBox="0 0 288.63 261.52"><defs><style>.cls-1{fill:url(#linear-gradient);}.cls-2{fill:url(#linear-gradient-2);}.cls-3{fill:url(#linear-gradient-3);}.cls-4{fill:url(#linear-gradient-4);}.cls-5{fill:url(#linear-gradient-5);}.cls-6{fill:url(#linear-gradient-6);}.cls-7{fill:url(#linear-gradient-7);}.cls-8{fill:url(#linear-gradient-8);}.cls-9{fill:url(#linear-gradient-9);}.cls-10{fill:#6fafed;}.cls-11{fill:url(#linear-gradient-10);}.cls-12{fill:url(#linear-gradient-11);}.cls-13{fill:url(#linear-gradient-12);}.cls-14{opacity:0.4;}.cls-15{fill:url(#linear-gradient-13);}.cls-16{fill:url(#linear-gradient-14);}.cls-17{fill:url(#linear-gradient-15);}.cls-18{fill:url(#linear-gradient-16);}.cls-19{fill:#ff96a1;}.cls-20{fill:url(#linear-gradient-17);}.cls-21{fill:url(#linear-gradient-18);}.cls-22{fill:url(#linear-gradient-19);}.cls-23{fill:url(#linear-gradient-20);}.cls-24{fill:#fff;}.cls-25{fill:url(#linear-gradient-21);}.cls-26{fill:#e4f2ff;}</style><linearGradient id="linear-gradient" x1="163.21" y1="67.89" x2="163.21" y2="286.11" gradientUnits="userSpaceOnUse"><stop offset="0" stop-color="#fff"/><stop offset="0.37" stop-color="#fdfdfd"/><stop offset="0.51" stop-color="#f6f6f6"/><stop offset="0.6" stop-color="#ebebeb"/><stop offset="0.68" stop-color="#dadada"/><stop offset="0.75" stop-color="#c4c4c4"/><stop offset="0.8" stop-color="#a8a8a8"/><stop offset="0.86" stop-color="#888"/><stop offset="0.91" stop-color="#626262"/><stop offset="0.95" stop-color="#373737"/><stop offset="0.99" stop-color="#090909"/><stop offset="1"/></linearGradient><linearGradient id="linear-gradient-2" x1="203.05" y1="67.89" x2="203.05" y2="286.11" xlink:href="#linear-gradient"/><linearGradient id="linear-gradient-3" x1="250" y1="67.89" x2="250" y2="286.11" xlink:href="#linear-gradient"/><linearGradient id="linear-gradient-4" x1="296.94" y1="67.89" x2="296.94" y2="286.11" xlink:href="#linear-gradient"/><linearGradient id="linear-gradient-5" x1="336.79" y1="67.89" x2="336.79" y2="286.11" xlink:href="#linear-gradient"/><linearGradient id="linear-gradient-6" x1="357.04" y1="136.14" x2="357.04" y2="263.2" xlink:href="#linear-gradient"/><linearGradient id="linear-gradient-7" x1="100.31" y1="136.14" x2="100.31" y2="263.2" gradientTransform="matrix(-1, 0, 0, 1, 243.27, 0)" xlink:href="#linear-gradient"/><linearGradient id="linear-gradient-8" x1="193.33" y1="170.5" x2="308.04" y2="285.21" xlink:href="#linear-gradient"/><linearGradient id="linear-gradient-9" x1="145.96" y1="196.7" x2="354.03" y2="196.7" xlink:href="#linear-gradient"/><linearGradient id="linear-gradient-10" x1="333.34" y1="120.38" x2="333.34" y2="236.87" xlink:href="#linear-gradient"/><linearGradient id="linear-gradient-11" x1="166.85" y1="120.38" x2="166.85" y2="236.87" xlink:href="#linear-gradient"/><linearGradient id="linear-gradient-12" x1="250" y1="120.38" x2="250" y2="236.87" xlink:href="#linear-gradient"/><linearGradient id="linear-gradient-13" x1="220.27" y1="94.79" x2="246.82" y2="217.99" xlink:href="#linear-gradient"/><linearGradient id="linear-gradient-14" x1="250" y1="208.82" x2="250" y2="278.29" xlink:href="#linear-gradient"/><linearGradient id="linear-gradient-15" x1="250" y1="208.66" x2="250" y2="263.97" xlink:href="#linear-gradient"/><linearGradient id="linear-gradient-16" x1="146.65" y1="261.05" x2="353.35" y2="261.05" xlink:href="#linear-gradient"/><linearGradient id="linear-gradient-17" x1="185.85" y1="290.4" x2="313.07" y2="290.4" xlink:href="#linear-gradient"/><linearGradient id="linear-gradient-18" x1="212.59" y1="290.4" x2="285.31" y2="290.4" xlink:href="#linear-gradient"/><linearGradient id="linear-gradient-19" x1="175.04" y1="395.63" x2="175.04" y2="278.8" xlink:href="#linear-gradient"/><linearGradient id="linear-gradient-20" x1="324.96" y1="395.63" x2="324.96" y2="278.8" xlink:href="#linear-gradient"/><linearGradient id="linear-gradient-21" x1="82.65" y1="242.51" x2="147.92" y2="184.73" gradientUnits="userSpaceOnUse"><stop offset="0.05" stop-color="#e09776"/><stop offset="1" stop-color="#2863a5"/></linearGradient></defs><g id="OBJECTS"><g id="_Repetición_radial_" data-name="&lt;Repetición radial&gt;"><path class="cls-1" d="M160.21,211c1.49-3.21,3.91-8,7.74-14.67,7.86-13.63,12.12-18.33,12.12-18.33l-22.76-.48s-1.94,3.11-5.59,9.44-5.37,9.56-5.37,9.56L155.12,211Z" transform="translate(-120.35 -130.24)"/></g><g id="_Repetición_radial_2" data-name="&lt;Repetición radial&gt;"><path class="cls-2" d="M193.26,145.44c6.33-3.65,9.56-5.37,9.56-5.37l19.47,11.78s-6,2-19.66,9.82-18.33,12.12-18.33,12.12L183.82,151S186.92,149.1,193.26,145.44Z" transform="translate(-120.35 -130.24)"/></g><g id="_Repetición_radial_3" data-name="&lt;Repetición radial&gt;"><path class="cls-3" d="M250,130.24c7.31,0,11,.13,11,.13l11,19.94S265.73,149,250,149s-21.94,1.33-21.94,1.33l11-19.94S242.69,130.24,250,130.24Z" transform="translate(-120.35 -130.24)"/></g><g id="_Repetición_radial_4" data-name="&lt;Repetición radial&gt;"><path class="cls-4" d="M306.74,145.44c6.33,3.66,9.43,5.6,9.43,5.6l-.47,22.75s-4.71-4.26-18.33-12.12-19.66-9.82-19.66-9.82l19.46-11.78S300.41,141.79,306.74,145.44Z" transform="translate(-120.35 -130.24)"/></g><g id="_Repetición_radial_5" data-name="&lt;Repetición radial&gt;"><path class="cls-5" d="M339.78,211h5.1l8.76-14.48s-1.71-3.23-5.37-9.56-5.59-9.43-5.59-9.43l-22.75.47s4.25,4.71,12.11,18.33C335.88,203,338.3,207.81,339.78,211Z" transform="translate(-120.35 -130.24)"/></g><path class="cls-6" d="M363.48,243.72c0-7.31-.13-11-.13-11l-12.74-7L354,247.8l9.45-3.69Z" transform="translate(-120.35 -130.24)"/><path class="cls-7" d="M136.52,243.72c0-7.31.13-11,.13-11l12.74-7L146,247.8l-9.45-3.69Z" transform="translate(-120.35 -130.24)"/><path class="cls-8" d="M153.07,239.3a3.7,3.7,0,0,0,.16-4.93c-2.31-2.67-2.63-5.71-2.81-8.46a12.15,12.15,0,0,1,3.34-9.2c3.14-3.35,7.14-5.27,12.82-5.27a23.14,23.14,0,0,1,4,.34c.42.07.84.16,1.24.26,4.55-10.89,11.27-21.86,17.39-27.62,19.4-18.27,33.84-17.23,57.28-17.23h7c23.45,0,37.88-1,57.29,17.23,6.11,5.76,12.83,16.73,17.38,27.62.41-.1.82-.19,1.24-.26a23.26,23.26,0,0,1,4-.34c5.67,0,9.67,1.92,12.81,5.27a12.2,12.2,0,0,1,3.35,9.2c-.19,2.75-.5,5.79-2.81,8.45a3.71,3.71,0,0,0,.19,4.95A89.84,89.84,0,0,1,354,247.8a104.05,104.05,0,0,0-208.07,0A92.75,92.75,0,0,1,153.07,239.3Z" transform="translate(-120.35 -130.24)"/><path class="cls-9" d="M354,247.8a104.05,104.05,0,0,0-208.07,0" transform="translate(-120.35 -130.24)"/><path class="cls-10" d="M354,247.8a104.52,104.52,0,0,0-65-93.64,104.31,104.31,0,0,0-78.1,0,104.53,104.53,0,0,0-65,93.64,103.23,103.23,0,0,1,8-39.45,105,105,0,0,1,22.6-33.49,103.55,103.55,0,0,1,33.72-22.39,104,104,0,0,1,79.48,0A103.36,103.36,0,0,1,354,247.8Z" transform="translate(-120.35 -130.24)"/><path class="cls-11" d="M331.88,219c-5.43.93-4.12,7-4.12,7l-4.38,1.89a16.12,16.12,0,0,1,.66,2.54c.09.56.16,1.11.22,1.67,5.81-.15,18.61-1.21,19-7.76C343.57,220.19,337.31,218.07,331.88,219Z" transform="translate(-120.35 -130.24)"/><path class="cls-12" d="M177,228,172.24,226s1.31-6-4.12-7-11.69,1.19-11.42,5.31c.46,7,15.08,7.74,20.15,7.78A17.19,17.19,0,0,1,177,228Z" transform="translate(-120.35 -130.24)"/><path class="cls-13" d="M306.09,193.86c-17.4-15.64-29.86-15.26-56.09-15.26s-38.69-.38-56.09,15.26C183.2,203.5,172.8,235,172.8,235s40.06,7.07,76.09,7.07H249c-33.39,0-70.51-6.63-70.51-6.63s10.79-28.56,20.72-37.6c16.12-14.66,26.51-13.21,50.82-13.21s34.7-1.45,50.82,13.21c9.93,9,20.72,37.6,20.72,37.6s-37.12,6.63-70.51,6.63h.08c36,0,76.09-7.07,76.09-7.07S316.8,203.5,306.09,193.86Z" transform="translate(-120.35 -130.24)"/><g class="cls-14"><path class="cls-15" d="M251,238.59c30.88,0,65.22-5.83,65.22-5.83s-10-25.09-19.17-33c-14.9-12.88-24.52-11.61-47-11.61s-32.1-1.27-47,11.61c-9.19,7.93-19.17,33-19.17,33s34.34,5.83,65.22,5.83" transform="translate(-120.35 -130.24)"/></g><path class="cls-16" d="M250,269.71c13.41,0,30.2-2.62,50.78-10.29,14.21-5.3,23.8-8,35.75-6.71,6.51.72,13.16,7.14,16.82,11.29h0s-5.94-15.24-26.59-30.17c0,0-26.91,2.11-76.76,2.11s-76.76-2.11-76.76-2.11C152.59,248.76,146.65,264,146.65,264h0c3.66-4.15,10.31-10.57,16.82-11.29,11.95-1.33,21.54,1.41,35.75,6.71,20.58,7.67,32.88,8.82,50.78,10.29" transform="translate(-120.35 -130.24)"/><path class="cls-17" d="M173.24,233.83l.84.84s19.39.67,36.61,9,15.65,18.46,39.51,18.46h-.4c23.86,0,22.29-10.17,39.51-18.46s36.61-9,36.61-9l.84-.84S279,230.61,250,230.61,173.24,233.83,173.24,233.83Z" transform="translate(-120.35 -130.24)"/><path class="cls-18" d="M353.35,264c-3.66-4.15-10.31-10.57-16.82-11.29-11.95-1.33-21.54,1.41-35.75,6.71C280.2,267.09,263,269.71,250,269.71s-30.2-2.62-50.78-10.29c-14.21-5.3-23.8-8-35.75-6.71-6.51.72-13.16,7.14-16.82,11.29" transform="translate(-120.35 -130.24)"/><path class="cls-19" d="M353.35,264A44.78,44.78,0,0,0,343,255.19a17,17,0,0,0-6.34-2.27,57.19,57.19,0,0,0-6.8-.27c-9.12.18-17.89,3.1-26.41,6.24A181.9,181.9,0,0,1,277.24,267,127.38,127.38,0,0,1,250,270.26,126.75,126.75,0,0,1,222.76,267a181.9,181.9,0,0,1-26.19-8.08c-8.52-3.14-17.29-6-26.41-6.24a57.19,57.19,0,0,0-6.8.27,17,17,0,0,0-6.33,2.27A44.62,44.62,0,0,0,146.65,264a44.84,44.84,0,0,1,10.24-9,17.33,17.33,0,0,1,6.42-2.43,56.26,56.26,0,0,1,6.86-.41,58.34,58.34,0,0,1,13.6,1.87c4.45,1.1,8.78,2.58,13.09,4.11A194.81,194.81,0,0,0,223,266a116.74,116.74,0,0,0,54,0,194.81,194.81,0,0,0,26.12-7.9c4.31-1.52,8.64-3,13.09-4.11a52.57,52.57,0,0,1,20.46-1.46,17.33,17.33,0,0,1,6.42,2.43A45.05,45.05,0,0,1,353.35,264Z" transform="translate(-120.35 -130.24)"/><path class="cls-20" d="M188.78,271.65c-.3-.08-2.63-.16-2.93-.24l1,38c.3-.08,1.62-1.08,1.92-1.16,13.25-3.63,34-8.88,60.17-8.88a227.91,227.91,0,0,1,60.17,8c.5.14,3.64,2,3.95,2.09l-3.44-19,2.43-19c-.31.08-2.64,1.08-2.94,1.17-12.49,3.42-33.91,8.88-60.17,8.88S201.27,275.07,188.78,271.65Z" transform="translate(-120.35 -130.24)"/><path class="cls-21" d="M281.44,285.52A270.06,270.06,0,0,1,249,287.21a270.18,270.18,0,0,1-32.49-1.69l-3.87,3.16v3.43l3.85,3.16A264.81,264.81,0,0,1,249,293.58a264.81,264.81,0,0,1,32.51,1.69l3.85-3.16v-3.43Z" transform="translate(-120.35 -130.24)"/><path class="cls-22" d="M173.1,264.32a27,27,0,0,0-22.89,12.44h28.51l9,13.38-9,13.38H150.21A27,27,0,0,0,173.1,316c14.78,0,26.77-11.56,26.77-25.82S187.88,264.32,173.1,264.32Z" transform="translate(-120.35 -130.24)"/><path class="cls-23" d="M326.9,316a27,27,0,0,0,22.89-12.44H321.28l-9-13.38,9-13.38h28.51a27,27,0,0,0-22.89-12.44c-14.78,0-26.77,11.56-26.77,25.82S312.12,316,326.9,316Z" transform="translate(-120.35 -130.24)"/></g><g id="TEXTS"><path class="cls-24" d="M145.72,388.77a17.8,17.8,0,0,1-9.27,2.3q-7.26,0-11.68-4.66t-4.42-12.08q0-8.24,4.76-13.28t12.76-5a17.47,17.47,0,0,1,7.88,1.64v5.87a13,13,0,0,0-7.88-2.6,10.59,10.59,0,0,0-8.27,3.53,13.45,13.45,0,0,0-3.2,9.39q0,5.79,3,9.06a10.52,10.52,0,0,0,8.13,3.27,13.51,13.51,0,0,0,8.18-2.85Zm5.77-29.64A21.3,21.3,0,0,1,163,356q12.12,0,12.11,12.72v21.55h-5.87v-5.17h-.15a11.19,11.19,0,0,1-10.26,6,11,11,0,0,1-7.75-2.63,9.18,9.18,0,0,1-2.88-7.12q0-9.37,11.11-10.93l9.93-1.39q0-8.21-6.78-8.2a17,17,0,0,0-11,4.05Zm9.93,15.41q-4.12.54-5.68,2.06a5.63,5.63,0,0,0-1.56,4.24,5,5,0,0,0,1.7,3.9,6.47,6.47,0,0,0,4.48,1.52,8.32,8.32,0,0,0,6.39-2.73,9.7,9.7,0,0,0,2.51-6.84v-3.21ZM200,362.67a7,7,0,0,0-4.09-1.06,6.7,6.7,0,0,0-5.69,3.23,14.62,14.62,0,0,0-2.24,8.49v16.95H182V356.8h5.93v6.81h.12q2.55-7.38,8.78-7.38a8.51,8.51,0,0,1,3.12.45Z" transform="translate(-120.35 -130.24)"/><polygon class="cls-25" points="64.83 179.54 92.55 179.54 108.33 210.67 124.27 179.54 150.36 179.54 123.23 219.49 150.14 261.52 122.49 261.52 107.59 232.35 90.69 261.52 63.2 261.52 89.8 220.53 64.83 179.54"/><path class="cls-26" d="M266.05,389.83a10.92,10.92,0,0,1-5.24,1.06q-9,0-9-10V361.59h-5.75v-4.91h5.75v-8.05l5.91-1.88v9.93h8.32v4.91h-8.32v18.28c0,2.2.37,3.78,1.12,4.73a4.46,4.46,0,0,0,3.72,1.42,5.6,5.6,0,0,0,3.48-1.12Zm31.86-14.89H274.48q.15,5.35,2.94,8.28t7.78,2.92a16.58,16.58,0,0,0,10.32-3.6v5.3q-4.41,3.11-11.71,3.11t-11.34-4.6q-4.07-4.61-4.07-12.77a18.36,18.36,0,0,1,4.46-12.69,14.29,14.29,0,0,1,11.1-5q6.57,0,10.26,4.22t3.69,11.82ZM292,370.19q0-4.54-2.15-7a7.42,7.42,0,0,0-6-2.48,8.32,8.32,0,0,0-6.13,2.63,12.25,12.25,0,0,0-3.26,6.88Zm29.87-7.63a6.92,6.92,0,0,0-4.09-1.06,6.69,6.69,0,0,0-5.69,3.22,14.55,14.55,0,0,0-2.24,8.49v17h-5.94V356.68h5.94v6.82H310q2.54-7.39,8.78-7.39a8.51,8.51,0,0,1,3.12.45Zm51.87,27.61h-5.93V370.94q0-5.44-1.7-7.79t-5.57-2.35a6.87,6.87,0,0,0-5.6,3.06,11.61,11.61,0,0,0-2.33,7.23v19.08h-5.93V370.34q0-9.54-7.36-9.54a6.81,6.81,0,0,0-5.62,2.91,11.85,11.85,0,0,0-2.22,7.41v19.05h-5.94V356.68h5.94V362h.12A11.41,11.41,0,0,1,342,355.9a10,10,0,0,1,5.94,1.84,9.56,9.56,0,0,1,3.57,5q3.72-6.84,11.14-6.84,11.06,0,11.05,13.62ZM409,374.94H385.54q.15,5.35,2.94,8.28t7.78,2.92a16.58,16.58,0,0,0,10.32-3.6v5.3q-4.41,3.11-11.71,3.11t-11.34-4.6q-4.08-4.61-4.07-12.77a18.36,18.36,0,0,1,4.46-12.69,14.29,14.29,0,0,1,11.1-5q6.57,0,10.26,4.22T409,371.94ZM403,370.19q0-4.54-2.15-7a7.42,7.42,0,0,0-6-2.48,8.32,8.32,0,0,0-6.13,2.63,12.25,12.25,0,0,0-3.26,6.88Z" transform="translate(-120.35 -130.24)"/></g></svg>