<svg xmlns="http://www.w3.org/2000/svg" xmlns:xlink="http://www.w3.org/1999/xlink" viewBox="0 0 226.95 242.04"><defs><style>.cls-1{fill:url(#Degradado_sin_nombre_7);}.cls-2{fill:url(#Degradado_sin_nombre_7-2);}.cls-3{fill:url(#Degradado_sin_nombre_7-3);}.cls-4{fill:url(#Degradado_sin_nombre_7-4);}.cls-5{fill:url(#Degradado_sin_nombre_7-5);}.cls-6{fill:url(#Degradado_sin_nombre_7-6);}.cls-7{fill:url(#Degradado_sin_nombre_7-7);}.cls-8{fill:url(#Degradado_sin_nombre_7-8);}.cls-9{fill:#6fafed;}.cls-10{fill:url(#Degradado_sin_nombre_104);}.cls-11{fill:url(#Degradado_sin_nombre_104-2);}.cls-12{fill:url(#Degradado_sin_nombre_104-3);}.cls-13{opacity:0.4;fill:url(#Degradado_sin_nombre_6);}.cls-14{fill:url(#Degradado_sin_nombre_5);}.cls-15{fill:url(#Degradado_sin_nombre_5-2);}.cls-16{fill:#ff96a1;}.cls-17{fill:url(#Degradado_sin_nombre_101);}.cls-18{fill:url(#Degradado_sin_nombre_100);}.cls-19{fill:url(#Degradado_sin_nombre_99);}.cls-20{fill:url(#Degradado_sin_nombre_99-2);}.cls-21{font-size:41px;letter-spacing:0.03em;}.cls-21,.cls-22{fill:#fff;font-family:MicrosoftYaHei-Bold, Microsoft YaHei;font-weight:700;}.cls-22{font-size:39px;letter-spacing:-0.03em;}.cls-23{letter-spacing:-0.03em;}.cls-24{letter-spacing:-0.02em;}.cls-25{fill:url(#linear-gradient);}</style><linearGradient id="Degradado_sin_nombre_7" x1="163.21" y1="67.89" x2="163.21" y2="286.11" gradientUnits="userSpaceOnUse"><stop offset="0" stop-color="#63b2ff"/><stop offset="1" stop-color="#00357a"/></linearGradient><linearGradient id="Degradado_sin_nombre_7-2" x1="203.05" y1="67.89" x2="203.05" y2="286.11" xlink:href="#Degradado_sin_nombre_7"/><linearGradient id="Degradado_sin_nombre_7-3" x1="250" y1="67.89" x2="250" y2="286.11" xlink:href="#Degradado_sin_nombre_7"/><linearGradient id="Degradado_sin_nombre_7-4" x1="296.94" y1="67.89" x2="296.94" y2="286.11" xlink:href="#Degradado_sin_nombre_7"/><linearGradient id="Degradado_sin_nombre_7-5" x1="336.79" y1="67.89" x2="336.79" y2="286.11" xlink:href="#Degradado_sin_nombre_7"/><linearGradient id="Degradado_sin_nombre_7-6" x1="357.04" y1="136.14" x2="357.04" y2="263.2" xlink:href="#Degradado_sin_nombre_7"/><linearGradient id="Degradado_sin_nombre_7-7" x1="100.31" y1="136.14" x2="100.31" y2="263.2" gradientTransform="matrix(-1, 0, 0, 1, 243.27, 0)" xlink:href="#Degradado_sin_nombre_7"/><linearGradient id="Degradado_sin_nombre_7-8" x1="193.33" y1="170.5" x2="308.04" y2="285.21" xlink:href="#Degradado_sin_nombre_7"/><linearGradient id="Degradado_sin_nombre_104" x1="333.34" y1="120.38" x2="333.34" y2="236.87" gradientUnits="userSpaceOnUse"><stop offset="0" stop-color="#ff7a97"/><stop offset="1" stop-color="#91262e"/></linearGradient><linearGradient id="Degradado_sin_nombre_104-2" x1="166.85" y1="120.38" x2="166.85" y2="236.87" xlink:href="#Degradado_sin_nombre_104"/><linearGradient id="Degradado_sin_nombre_104-3" x1="250" y1="120.38" x2="250" y2="236.87" xlink:href="#Degradado_sin_nombre_104"/><linearGradient id="Degradado_sin_nombre_6" x1="220.27" y1="94.79" x2="246.82" y2="217.99" gradientUnits="userSpaceOnUse"><stop offset="0" stop-color="#fff"/><stop offset="1" stop-color="#fff" stop-opacity="0"/></linearGradient><linearGradient id="Degradado_sin_nombre_5" x1="250" y1="208.82" x2="250" y2="278.29" gradientUnits="userSpaceOnUse"><stop offset="0" stop-color="#ff7a97"/><stop offset="1" stop-color="#ad2834"/></linearGradient><linearGradient id="Degradado_sin_nombre_5-2" x1="250" y1="208.66" x2="250" y2="263.97" xlink:href="#Degradado_sin_nombre_5"/><linearGradient id="Degradado_sin_nombre_101" x1="185.85" y1="290.4" x2="313.07" y2="290.4" gradientUnits="userSpaceOnUse"><stop offset="0" stop-color="#69c"/><stop offset="0.39" stop-color="#e4f2ff"/><stop offset="0.72" stop-color="#e4f2ff"/><stop offset="1" stop-color="#69c"/></linearGradient><linearGradient id="Degradado_sin_nombre_100" x1="212.59" y1="290.4" x2="285.31" y2="290.4" gradientUnits="userSpaceOnUse"><stop offset="0" stop-color="#7aa4cf"/><stop offset="0.5" stop-color="#d9ecff"/><stop offset="1" stop-color="#7aa4cf"/></linearGradient><linearGradient id="Degradado_sin_nombre_99" x1="175.04" y1="395.63" x2="175.04" y2="278.8" gradientUnits="userSpaceOnUse"><stop offset="0" stop-color="#69c"/><stop offset="1" stop-color="#e4f2ff"/></linearGradient><linearGradient id="Degradado_sin_nombre_99-2" x1="324.96" y1="395.63" x2="324.96" y2="278.8" xlink:href="#Degradado_sin_nombre_99"/><linearGradient id="linear-gradient" x1="77.66" y1="220.32" x2="115.37" y2="186.95" gradientUnits="userSpaceOnUse"><stop offset="0.05" stop-color="#eb455a"/><stop offset="1" stop-color="#0060ac"/></linearGradient></defs><g id="OBJECTS"><g id="_Repetición_radial_" data-name="&lt;Repetición radial&gt;"><path class="cls-1" d="M160.21,211c1.49-3.21,3.91-8,7.74-14.67,7.86-13.63,12.12-18.33,12.12-18.33l-22.76-.48s-1.94,3.11-5.59,9.44-5.37,9.56-5.37,9.56L155.12,211Z" transform="translate(-136.52 -130.24)"/></g><g id="_Repetición_radial_2" data-name="&lt;Repetición radial&gt;"><path class="cls-2" d="M193.26,145.44c6.33-3.65,9.56-5.37,9.56-5.37l19.47,11.78s-6,2-19.66,9.82-18.33,12.12-18.33,12.12L183.82,151S186.92,149.1,193.26,145.44Z" transform="translate(-136.52 -130.24)"/></g><g id="_Repetición_radial_3" data-name="&lt;Repetición radial&gt;"><path class="cls-3" d="M250,130.24c7.31,0,11,.13,11,.13l11,19.94S265.73,149,250,149s-21.94,1.33-21.94,1.33l11-19.94S242.69,130.24,250,130.24Z" transform="translate(-136.52 -130.24)"/></g><g id="_Repetición_radial_4" data-name="&lt;Repetición radial&gt;"><path class="cls-4" d="M306.74,145.44c6.33,3.66,9.43,5.6,9.43,5.6l-.47,22.75s-4.71-4.26-18.33-12.12-19.66-9.82-19.66-9.82l19.46-11.78S300.41,141.79,306.74,145.44Z" transform="translate(-136.52 -130.24)"/></g><g id="_Repetición_radial_5" data-name="&lt;Repetición radial&gt;"><path class="cls-5" d="M339.78,211h5.1l8.76-14.48s-1.71-3.23-5.37-9.56-5.59-9.43-5.59-9.43l-22.75.47s4.25,4.71,12.11,18.33C335.88,203,338.3,207.81,339.78,211Z" transform="translate(-136.52 -130.24)"/></g><path class="cls-6" d="M363.48,243.72c0-7.31-.13-11-.13-11l-12.74-7L354,247.8l9.45-3.69Z" transform="translate(-136.52 -130.24)"/><path class="cls-7" d="M136.52,243.72c0-7.31.13-11,.13-11l12.74-7L146,247.8l-9.45-3.69Z" transform="translate(-136.52 -130.24)"/><path class="cls-8" d="M153.07,239.3a3.7,3.7,0,0,0,.16-4.93c-2.31-2.67-2.63-5.71-2.81-8.46a12.15,12.15,0,0,1,3.34-9.2c3.14-3.35,7.14-5.27,12.82-5.27a23.14,23.14,0,0,1,4,.34c.42.07.84.16,1.24.26,4.55-10.89,11.27-21.86,17.39-27.62,19.4-18.27,33.84-17.23,57.28-17.23h7c23.45,0,37.88-1,57.29,17.23,6.11,5.76,12.83,16.73,17.38,27.62.41-.1.82-.19,1.24-.26a23.26,23.26,0,0,1,4-.34c5.67,0,9.67,1.92,12.81,5.27a12.2,12.2,0,0,1,3.35,9.2c-.19,2.75-.5,5.79-2.81,8.45a3.71,3.71,0,0,0,.19,4.95A89.84,89.84,0,0,1,354,247.8a104.05,104.05,0,0,0-208.07,0A92.75,92.75,0,0,1,153.07,239.3Z" transform="translate(-136.52 -130.24)"/><path class="cls-9" d="M354,247.8c-2.08-72.27-76.12-120.92-143.09-93.63-37.65,15-64.09,53-65,93.64a103.23,103.23,0,0,1,8-39.45c15.53-38,55-64.16,96.06-63.77,56.39-.41,104.32,46.69,104,103.21Z" transform="translate(-136.52 -130.24)"/><path class="cls-10" d="M331.88,219c-5.43.93-4.12,7-4.12,7l-4.38,1.89a16.12,16.12,0,0,1,.66,2.54c.09.56.16,1.11.22,1.67,5.81-.15,18.61-1.21,19-7.76C343.57,220.19,337.31,218.07,331.88,219Z" transform="translate(-136.52 -130.24)"/><path class="cls-11" d="M177,228,172.24,226s1.31-6-4.12-7-11.69,1.19-11.42,5.31c.46,7,15.08,7.74,20.15,7.78A17.19,17.19,0,0,1,177,228Z" transform="translate(-136.52 -130.24)"/><path class="cls-12" d="M306.09,193.86c-17.4-15.64-29.86-15.26-56.09-15.26s-38.69-.38-56.09,15.26C183.2,203.5,172.8,235,172.8,235s40.06,7.07,76.09,7.07H249c-33.39,0-70.51-6.63-70.51-6.63s10.79-28.56,20.72-37.6c16.12-14.66,26.51-13.21,50.82-13.21s34.7-1.45,50.82,13.21c9.93,9,20.72,37.6,20.72,37.6s-37.12,6.63-70.51,6.63h.08c36,0,76.09-7.07,76.09-7.07S316.8,203.5,306.09,193.86Z" transform="translate(-136.52 -130.24)"/><path class="cls-13" d="M251,238.59c30.88,0,65.22-5.83,65.22-5.83s-10-25.09-19.17-33c-14.9-12.88-24.52-11.61-47-11.61s-32.1-1.27-47,11.61c-9.19,7.93-19.17,33-19.17,33s34.34,5.83,65.22,5.83" transform="translate(-136.52 -130.24)"/><path class="cls-14" d="M250,269.71c13.41,0,30.2-2.62,50.78-10.29,14.21-5.3,23.8-8,35.75-6.71,6.51.72,13.16,7.14,16.82,11.29h0s-5.94-15.24-26.59-30.17c0,0-26.91,2.11-76.76,2.11s-76.76-2.11-76.76-2.11C152.59,248.76,146.65,264,146.65,264h0c3.66-4.15,10.31-10.57,16.82-11.29,11.95-1.33,21.54,1.41,35.75,6.71,20.58,7.67,32.88,8.82,50.78,10.29" transform="translate(-136.52 -130.24)"/><path class="cls-15" d="M173.24,233.83l.84.84s19.39.67,36.61,9,15.65,18.46,39.51,18.46h-.4c23.86,0,22.29-10.17,39.51-18.46s36.61-9,36.61-9l.84-.84S279,230.61,250,230.61,173.24,233.83,173.24,233.83Z" transform="translate(-136.52 -130.24)"/><path class="cls-16" d="M353.35,264c-4.55-4.85-9.9-10-16.71-11.08-11.42-1.35-22.6,2-33.21,6-17,6.57-35.07,11.24-53.43,11.37-18.36-.13-36.41-4.8-53.43-11.37-10.61-4-21.79-7.32-33.21-6-6.82,1.05-12.15,6.23-16.71,11.08,4.49-5,9.77-10.29,16.66-11.47A54.32,54.32,0,0,1,183.77,254c4.45,1.1,8.78,2.58,13.09,4.11,17,6.36,34.91,11,53.14,11.07s36.13-4.71,53.14-11.07c10.69-3.89,22.07-7.18,33.55-5.57,6.89,1.18,12.17,6.49,16.66,11.47Z" transform="translate(-136.52 -130.24)"/><path class="cls-17" d="M188.78,271.65c-.3-.08-2.63-.16-2.93-.24l1,38c.3-.08,1.62-1.08,1.92-1.16,13.25-3.63,34-8.88,60.17-8.88a227.91,227.91,0,0,1,60.17,8c.5.14,3.64,2,3.95,2.09l-3.44-19,2.43-19c-.31.08-2.64,1.08-2.94,1.17-12.49,3.42-33.91,8.88-60.17,8.88S201.27,275.07,188.78,271.65Z" transform="translate(-136.52 -130.24)"/><path class="cls-18" d="M281.44,285.52A270.06,270.06,0,0,1,249,287.21a270.18,270.18,0,0,1-32.49-1.69l-3.87,3.16v3.43l3.85,3.16A264.81,264.81,0,0,1,249,293.58a264.81,264.81,0,0,1,32.51,1.69l3.85-3.16v-3.43Z" transform="translate(-136.52 -130.24)"/><path class="cls-19" d="M173.1,264.32a27,27,0,0,0-22.89,12.44h28.51l9,13.38-9,13.38H150.21A27,27,0,0,0,173.1,316c14.78,0,26.77-11.56,26.77-25.82S187.88,264.32,173.1,264.32Z" transform="translate(-136.52 -130.24)"/><path class="cls-20" d="M326.9,316a27,27,0,0,0,22.89-12.44H321.28l-9-13.38,9-13.38h28.51a27,27,0,0,0-22.89-12.44c-14.78,0-26.77,11.56-26.77,25.82S312.12,316,326.9,316Z" transform="translate(-136.52 -130.24)"/></g><g id="TEXTS"><text class="cls-21" transform="translate(13.81 231.31) scale(0.96 1)">car</text><text class="cls-21" transform="translate(13.81 231.31) scale(0.96 1)">car</text><text class="cls-22" transform="translate(104.3 229.3)">t<tspan class="cls-23" x="14.96" y="0">e</tspan><tspan class="cls-24" x="36.65" y="0">r</tspan><tspan class="cls-23" x="52.26" y="0">me</tspan></text><text class="cls-22" transform="translate(104.3 229.3)">t<tspan class="cls-23" x="14.96" y="0">e</tspan><tspan class="cls-24" x="36.65" y="0">r</tspan><tspan class="cls-23" x="52.26" y="0">me</tspan></text><polygon class="cls-25" points="67.37 183.95 83.38 183.95 92.5 201.93 101.71 183.95 116.78 183.95 101.11 207.03 116.65 231.31 100.68 231.31 92.07 214.45 82.31 231.31 66.43 231.31 81.79 207.63 67.37 183.95"/></g></svg>